Coordinates
version=1
nRows=10
nColumns=40
inDegrees=yes

Units are S.I. units (second, meters, Newtons, ...)
Angles are in degrees.

endheader
time	pelvis_tilt	pelvis_list	pelvis_rotation	pelvis_tx	pelvis_ty	pelvis_tz	hip_flexion_r	hip_adduction_r	hip_rotation_r	knee_angle_r	knee_angle_r_beta	ankle_angle_r	subtalar_angle_r	mtp_angle_r	hip_flexion_l	hip_adduction_l	hip_rotation_l	knee_angle_l	knee_angle_l_beta	ankle_angle_l	subtalar_angle_l	mtp_angle_l	lumbar_extension	lumbar_bending	lumbar_rotation	arm_flex_r	arm_add_r	arm_rot_r	elbow_flex_r	pro_sup_r	wrist_flex_r	wrist_dev_r	arm_flex_l	arm_add_l	arm_rot_l	elbow_flex_l	pro_sup_l	wrist_flex_l	wrist_dev_l
     14.65714286	     -4.95890094	     -4.65604730	      0.08274375	      0.98663064	      0.90771878	      0.38884157	     24.96840139	     -7.59867594	     -2.26961307	     63.24760927	     63.24760927	      4.11845722	    -13.24703213	     -3.24083356	     23.15751481	     -1.44171701	     -3.25582739	     35.72430666	     35.72430666	     21.04351884	    -18.12959638	      9.70998732	    -11.97418198	      6.95339240	      2.45248194	      9.62878585	    -12.22605726	    -16.19303540	     21.81970565	     47.06241271	      0.00000000	      0.00000000	     20.25207155	    -14.47421999	     16.33580841	     30.47210872	     45.81044335	      0.00000000	      0.00000000
     14.67928571	     -4.82867888	     -4.73454856	     -0.60409373	      0.98609130	      0.90808441	      0.38808447	     26.61334045	     -7.32021861	     -1.58014776	     64.33291701	     64.33291701	      3.72669170	    -13.64215617	     -2.28381415	     22.58506082	     -1.61824922	     -3.72528410	     35.61167174	     35.61167174	     21.38208144	    -18.22436920	      9.80570676	    -12.24187119	      7.20867639	      2.18503391	      6.15574558	    -12.04600823	    -16.11452154	     20.75270151	     47.07097126	      0.00000000	      0.00000000	     22.50087117	    -15.16538901	     15.83032069	     31.70962453	     45.91329311	      0.00000000	      0.00000000
     14.70142857	     -4.79529800	     -4.79702515	     -1.34799373	      0.98545743	      0.90895284	      0.38771665	     28.12667651	     -7.02878017	     -1.01454321	     64.54606971	     64.54606971	      3.62506158	    -13.83686264	     -1.69378363	     21.95174517	     -1.79592655	     -4.26076741	     35.18569372	     35.18569372	     21.60228593	    -18.30984594	      9.95472211	    -12.40603778	      7.39329023	      1.76801876	      2.97548835	    -11.86135510	    -16.05502664	     19.96976028	     47.06983325	      0.00000000	      0.00000000	     24.59938891	    -15.98090316	     15.21733501	     32.87903864	     46.02604690	      0.00000000	      0.00000000
     14.72357143	     -4.83848740	     -4.91151676	     -2.10716689	      0.98473693	      0.91030720	      0.38770892	     29.42763819	     -6.70506413	     -0.68868207	     63.84229214	     63.84229214	      4.04131812	    -13.74354366	     -0.70478192	     21.30599293	     -2.05047604	     -4.82742919	     34.57676254	     34.57676254	     21.69178647	    -18.30560223	     10.11770410	    -12.58526402	      7.67711388	      1.61700747	     -1.09936568	    -11.72661698	    -15.36282985	     21.77835286	     46.88477778	      0.00000000	      0.00000000	     26.43584231	    -16.56843211	     12.67468535	     34.95835958	     46.36934229	      0.00000000	      0.00000000
     14.74571429	     -5.07262979	     -5.06342199	     -2.90955563	      0.98378210	      0.91180219	      0.38817175	     30.62608245	     -6.32380013	     -0.51014715	     62.20050848	     62.20050848	      4.42677696	    -13.52780235	     -0.74381995	     20.84091369	     -2.38912059	     -5.43443079	     33.89746020	     33.89746020	     21.68153241	    -18.32192323	     10.30512009	    -12.44864048	      7.93031426	      0.67944177	     -3.29627901	    -11.57927944	    -15.37221186	     20.99606818	     46.89862618	      0.00000000	      0.00000000	     28.27290622	    -17.93825896	     12.26134755	     35.49657257	     46.44390340	      0.00000000	      0.00000000
     14.76785714	     -5.26642998	     -5.12082265	     -3.78261499	      0.98286199	      0.91395301	      0.38898509	     31.44686676	     -5.98421986	     -0.34656997	     59.62708864	     59.62708864	      4.80889177	    -13.24159592	     -1.02630642	     19.99189671	     -2.61154146	     -6.14807614	     32.59953818	     32.59953818	     21.54781128	    -18.22102046	     10.55044650	    -12.46988976	      8.05693167	      0.83812549	     -5.94681436	    -11.41454869	    -15.25687474	     20.21318257	     46.89602133	      0.00000000	      0.00000000	     30.35660795	    -18.60341297	     11.51807937	     36.94013144	     46.56613232	      0.00000000	      0.00000000
     14.79000000	     -5.44841696	     -5.22115441	     -4.72418463	      0.98184788	      0.91624373	      0.39024617	     31.90385983	     -5.60514579	     -0.33669133	     56.21992552	     56.21992552	      5.08602871	    -12.50689687	     -1.80858090	     19.11187026	     -2.91560223	     -6.94571467	     31.28102036	     31.28102036	     21.31316036	    -18.18181443	     10.61012867	    -12.60314149	      8.15298414	      1.33672460	     -8.63688985	    -11.24393456	    -15.10233126	     20.03506434	     46.85907595	      0.00000000	      0.00000000	     32.43882668	    -19.03295035	     10.29769072	     38.98797505	     46.74280298	      0.00000000	      0.00000000
     14.81214286	     -5.85100505	     -5.30306926	     -5.66913927	      0.98067278	      0.91807526	      0.39190132	     32.09848164	     -5.19769603	     -0.45536278	     51.69124475	     51.69124475	      3.27331973	    -12.75490444	     -8.19061286	     18.51041092	     -3.27940732	     -7.89052677	     29.99366807	     29.99366807	     20.50691298	    -18.14390585	      9.19908020	    -12.52803391	      8.23326805	      1.14708575	    -12.20543471	    -11.49345588	    -10.58785136	     24.03161161	     46.25974216	      0.00000000	      0.00000000	     33.59466253	    -19.03968881	      3.21586364	     42.00753044	     47.41266420	      0.00000000	      0.00000000
     14.83428571	     -6.23115491	     -5.40340570	     -6.53468483	      0.97952696	      0.92001158	      0.39383457	     32.09924649	     -4.75911269	     -0.73111288	     47.07082948	     47.07082948	      3.55744777	    -11.10921827	     -7.84548553	     17.89795651	     -3.61578031	     -8.65804160	     28.76574480	     28.76574480	     20.30056462	    -17.98099200	      9.43239861	    -12.37473021	      8.30893319	      1.08338434	    -13.86514968	    -11.24698553	    -10.47529436	     23.82799392	     46.24422549	      0.00000000	      0.00000000	     35.45696759	    -19.99356094	      2.77551741	     43.28763985	     47.48391020	      0.00000000	      0.00000000
     14.85642857	     -6.58850678	     -5.38665072	     -7.40952237	      0.97847756	      0.92155285	      0.39609153	     31.87093987	     -4.45530325	     -1.15732177	     42.23575854	     42.23575854	      3.67349203	     -8.69314878	     -7.30065131	     17.22876907	     -3.85499559	     -9.57018258	     27.45780206	     27.45780206	     19.63473041	    -17.89055371	      8.40394796	    -12.35539309	      8.23725646	      1.22739607	    -16.44006998	    -11.03750160	     -9.58241275	     26.64554015	     46.03112418	      0.00000000	      0.00000000	     36.69060097	    -20.76455433	      0.83981131	     46.79364517	     47.66390043	      0.00000000	      0.00000000
